STARTFONT 2.1
FONT -artwiz-smoothansi-bold-r-bold--13-130-75-75-m-60-ISO8859-1
SIZE 13 75 75
FONTBOUNDINGBOX 8 16 0 -2
STARTPROPERTIES 24
POINT_SIZE 130
RESOLUTION_X 75
RESOLUTION_Y 75
WEIGHT 10
RESOLUTION 99
X_HEIGHT 11
QUAD_WIDTH 6
FONT_ASCENT 11
FONT_DESCENT 2
FOUNDRY "artwiz"
FAMILY_NAME "smoothansi"
WEIGHT_NAME "bold"
SLANT "r"
SETWIDTH_NAME "normal"
ADD_STYLE_NAME ""
PIXEL_SIZE 13
SPACING "m"
AVERAGE_WIDTH 60
CHARSET_REGISTRY "ISO8859"
CHARSET_ENCODING "1"
_XMBDFED_INFO "Edited with xmbdfed 4.7."
_GBDFED_INFO "Edited with gbdfed 1.1."
COPYRIGHT "Daniel Erat, latin1 and bold chars by Sergio Martins"
DEFAULT_CHAR 63
ENDPROPERTIES
CHARS 210
STARTCHAR char0
ENCODING 0
SWIDTH 590 0
DWIDTH 8 0
BBX 6 12 1 1
BITMAP
FC
FC
FC
FC
FC
FC
FC
FC
FC
FC
FC
FC
ENDCHAR
STARTCHAR char1
ENCODING 1
SWIDTH 590 0
DWIDTH 8 0
BBX 6 5 1 3
BITMAP
30
78
FC
78
30
ENDCHAR
STARTCHAR char2
ENCODING 2
SWIDTH 590 0
DWIDTH 8 0
BBX 6 12 1 1
BITMAP
FC
78
FC
78
FC
78
FC
78
FC
78
FC
78
ENDCHAR
STARTCHAR char9
ENCODING 9
SWIDTH 590 0
DWIDTH 8 0
BBX 0 0 0 0
BITMAP
ENDCHAR
STARTCHAR char10
ENCODING 10
SWIDTH 590 0
DWIDTH 8 0
BBX 0 0 0 0
BITMAP
ENDCHAR
STARTCHAR char11
ENCODING 11
SWIDTH 590 0
DWIDTH 8 0
BBX 5 9 0 5
BITMAP
18
18
18
18
18
18
18
18
F8
ENDCHAR
STARTCHAR char11
ENCODING 12
SWIDTH 590 0
DWIDTH 8 0
BBX 5 7 0 -1
BITMAP
F8
18
18
18
18
18
18
ENDCHAR
STARTCHAR char11
ENCODING 13
SWIDTH 590 0
DWIDTH 8 0
BBX 5 7 3 -1
BITMAP
F8
C0
C0
C0
C0
C0
C0
ENDCHAR
STARTCHAR char11
ENCODING 14
SWIDTH 590 0
DWIDTH 8 0
BBX 5 9 3 5
BITMAP
C0
C0
C0
C0
C0
C0
C0
C0
F8
ENDCHAR
STARTCHAR char15
ENCODING 15
SWIDTH 590 0
DWIDTH 8 0
BBX 7 15 0 -1
BITMAP
18
18
18
18
18
18
18
18
FE
18
18
18
18
18
18
ENDCHAR
STARTCHAR char16
ENCODING 16
SWIDTH 590 0
DWIDTH 8 0
BBX 7 1 0 10
BITMAP
FE
ENDCHAR
STARTCHAR char17
ENCODING 17
SWIDTH 590 0
DWIDTH 8 0
BBX 7 1 0 8
BITMAP
FE
ENDCHAR
STARTCHAR char18
ENCODING 18
SWIDTH 590 0
DWIDTH 8 0
BBX 7 1 0 5
BITMAP
FE
ENDCHAR
STARTCHAR char19
ENCODING 19
SWIDTH 590 0
DWIDTH 8 0
BBX 7 1 0 3
BITMAP
FE
ENDCHAR
STARTCHAR char20
ENCODING 20
SWIDTH 590 0
DWIDTH 8 0
BBX 7 1 0 0
BITMAP
FE
ENDCHAR
STARTCHAR char21
ENCODING 21
SWIDTH 590 0
DWIDTH 8 0
BBX 5 15 3 -1
BITMAP
C0
C0
C0
C0
C0
C0
C0
C0
F8
C0
C0
C0
C0
C0
C0
ENDCHAR
STARTCHAR char22
ENCODING 22
SWIDTH 590 0
DWIDTH 8 0
BBX 5 15 0 -1
BITMAP
18
18
18
18
18
18
18
18
F8
18
18
18
18
18
18
ENDCHAR
STARTCHAR char23
ENCODING 23
SWIDTH 590 0
DWIDTH 8 0
BBX 7 9 0 5
BITMAP
18
18
18
18
18
18
18
18
FE
ENDCHAR
STARTCHAR char24
ENCODING 24
SWIDTH 590 0
DWIDTH 8 0
BBX 7 6 0 0
BITMAP
FE
18
18
18
18
18
ENDCHAR
STARTCHAR char25
ENCODING 25
SWIDTH 590 0
DWIDTH 8 0
BBX 2 15 3 -1
BITMAP
C0
C0
C0
C0
C0
C0
C0
C0
C0
C0
C0
C0
C0
C0
C0
ENDCHAR
STARTCHAR char32
ENCODING 32
SWIDTH 590 0
DWIDTH 8 0
BBX 0 0 0 0
BITMAP
ENDCHAR
STARTCHAR char33
ENCODING 33
SWIDTH 590 0
DWIDTH 8 0
BBX 2 9 2 0
BITMAP
C0
C0
C0
C0
C0
C0
C0
00
C0
ENDCHAR
STARTCHAR char34
ENCODING 34
SWIDTH 590 0
DWIDTH 8 0
BBX 6 4 0 6
BITMAP
FC
FC
6C
D8
ENDCHAR
STARTCHAR char35
ENCODING 35
SWIDTH 590 0
DWIDTH 8 0
BBX 6 7 0 1
BITMAP
48
78
FC
78
FC
78
48
ENDCHAR
STARTCHAR char36
ENCODING 36
SWIDTH 590 0
DWIDTH 8 0
BBX 6 9 0 0
BITMAP
78
FC
F0
78
3C
3C
3C
FC
78
ENDCHAR
STARTCHAR char37
ENCODING 37
SWIDTH 590 0
DWIDTH 8 0
BBX 6 9 0 0
BITMAP
6C
FC
78
18
30
60
78
FC
D8
ENDCHAR
STARTCHAR char38
ENCODING 38
SWIDTH 590 0
DWIDTH 8 0
BBX 6 9 0 0
BITMAP
60
F0
F0
60
F0
FC
D8
D8
7C
ENDCHAR
STARTCHAR char39
ENCODING 39
SWIDTH 590 0
DWIDTH 8 0
BBX 3 4 1 6
BITMAP
E0
E0
60
C0
ENDCHAR
STARTCHAR char40
ENCODING 40
SWIDTH 590 0
DWIDTH 8 0
BBX 4 9 1 0
BITMAP
30
60
C0
C0
C0
C0
C0
60
30
ENDCHAR
STARTCHAR char41
ENCODING 41
SWIDTH 590 0
DWIDTH 8 0
BBX 4 9 1 0
BITMAP
C0
60
30
30
30
30
30
60
C0
ENDCHAR
STARTCHAR char42
ENCODING 42
SWIDTH 590 0
DWIDTH 8 0
BBX 6 7 0 1
BITMAP
30
FC
FC
78
FC
FC
30
ENDCHAR
STARTCHAR char43
ENCODING 43
SWIDTH 590 0
DWIDTH 8 0
BBX 6 5 0 2
BITMAP
30
30
FC
30
30
ENDCHAR
STARTCHAR char44
ENCODING 44
SWIDTH 590 0
DWIDTH 8 0
BBX 3 4 2 -2
BITMAP
E0
E0
60
C0
ENDCHAR
STARTCHAR char45
ENCODING 45
SWIDTH 590 0
DWIDTH 8 0
BBX 6 1 0 4
BITMAP
FC
ENDCHAR
STARTCHAR char46
ENCODING 46
SWIDTH 590 0
DWIDTH 8 0
BBX 3 2 2 0
BITMAP
E0
E0
ENDCHAR
STARTCHAR char47
ENCODING 47
SWIDTH 590 0
DWIDTH 8 0
BBX 6 9 0 0
BITMAP
0C
0C
18
18
30
60
60
C0
C0
ENDCHAR
STARTCHAR char48
ENCODING 48
SWIDTH 590 0
DWIDTH 8 0
BBX 6 9 0 0
BITMAP
78
CC
CC
DC
FC
EC
CC
CC
78
ENDCHAR
STARTCHAR char49
ENCODING 49
SWIDTH 590 0
DWIDTH 8 0
BBX 6 9 0 0
BITMAP
30
70
F0
30
30
30
30
30
FC
ENDCHAR
STARTCHAR char50
ENCODING 50
SWIDTH 590 0
DWIDTH 8 0
BBX 6 9 0 0
BITMAP
78
CC
0C
18
30
60
C0
C0
FC
ENDCHAR
STARTCHAR char51
ENCODING 51
SWIDTH 590 0
DWIDTH 8 0
BBX 6 9 0 0
BITMAP
FC
18
30
78
0C
0C
0C
CC
78
ENDCHAR
STARTCHAR char52
ENCODING 52
SWIDTH 590 0
DWIDTH 8 0
BBX 6 9 0 0
BITMAP
18
38
78
D8
FC
18
18
18
18
ENDCHAR
STARTCHAR char53
ENCODING 53
SWIDTH 590 0
DWIDTH 8 0
BBX 6 9 0 0
BITMAP
FC
C0
C0
F8
0C
0C
0C
CC
78
ENDCHAR
STARTCHAR char54
ENCODING 54
SWIDTH 590 0
DWIDTH 8 0
BBX 6 9 0 0
BITMAP
78
CC
C0
F8
CC
CC
CC
CC
78
ENDCHAR
STARTCHAR char55
ENCODING 55
SWIDTH 590 0
DWIDTH 8 0
BBX 6 9 0 0
BITMAP
FC
0C
18
30
60
60
60
60
60
ENDCHAR
STARTCHAR char56
ENCODING 56
SWIDTH 590 0
DWIDTH 8 0
BBX 6 9 0 0
BITMAP
78
CC
CC
78
CC
CC
CC
CC
78
ENDCHAR
STARTCHAR char57
ENCODING 57
SWIDTH 590 0
DWIDTH 8 0
BBX 6 9 0 0
BITMAP
78
CC
CC
7C
0C
0C
0C
CC
78
ENDCHAR
STARTCHAR char58
ENCODING 58
SWIDTH 590 0
DWIDTH 8 0
BBX 3 6 1 1
BITMAP
E0
E0
00
00
E0
E0
ENDCHAR
STARTCHAR char59
ENCODING 59
SWIDTH 590 0
DWIDTH 8 0
BBX 3 8 1 -1
BITMAP
E0
E0
00
00
E0
E0
60
C0
ENDCHAR
STARTCHAR char60
ENCODING 60
SWIDTH 590 0
DWIDTH 8 0
BBX 6 9 0 0
BITMAP
0C
18
30
60
C0
60
30
18
0C
ENDCHAR
STARTCHAR char61
ENCODING 61
SWIDTH 590 0
DWIDTH 8 0
BBX 6 4 0 2
BITMAP
FC
00
00
FC
ENDCHAR
STARTCHAR char62
ENCODING 62
SWIDTH 590 0
DWIDTH 8 0
BBX 6 9 0 0
BITMAP
C0
60
30
18
0C
18
30
60
C0
ENDCHAR
STARTCHAR char63
ENCODING 63
SWIDTH 590 0
DWIDTH 8 0
BBX 6 9 0 0
BITMAP
78
CC
0C
18
30
30
30
00
30
ENDCHAR
STARTCHAR char64
ENCODING 64
SWIDTH 590 0
DWIDTH 8 0
BBX 6 9 0 0
BITMAP
78
CC
FC
FC
FC
FC
FC
C0
7C
ENDCHAR
STARTCHAR char65
ENCODING 65
SWIDTH 590 0
DWIDTH 8 0
BBX 6 9 0 0
BITMAP
78
CC
CC
CC
FC
CC
CC
CC
CC
ENDCHAR
STARTCHAR char66
ENCODING 66
SWIDTH 590 0
DWIDTH 8 0
BBX 6 9 0 0
BITMAP
F8
CC
CC
F8
CC
CC
CC
CC
F8
ENDCHAR
STARTCHAR char67
ENCODING 67
SWIDTH 590 0
DWIDTH 8 0
BBX 6 9 0 0
BITMAP
78
CC
C0
C0
C0
C0
C0
CC
78
ENDCHAR
STARTCHAR char68
ENCODING 68
SWIDTH 590 0
DWIDTH 8 0
BBX 6 9 0 0
BITMAP
F8
CC
CC
CC
CC
CC
CC
CC
F8
ENDCHAR
STARTCHAR char69
ENCODING 69
SWIDTH 590 0
DWIDTH 8 0
BBX 6 9 0 0
BITMAP
FC
C0
C0
C0
F8
C0
C0
C0
FC
ENDCHAR
STARTCHAR char70
ENCODING 70
SWIDTH 590 0
DWIDTH 8 0
BBX 6 9 0 0
BITMAP
FC
C0
C0
C0
F8
C0
C0
C0
C0
ENDCHAR
STARTCHAR char71
ENCODING 71
SWIDTH 590 0
DWIDTH 8 0
BBX 6 9 0 0
BITMAP
78
CC
C0
C0
DC
CC
CC
CC
7C
ENDCHAR
STARTCHAR char72
ENCODING 72
SWIDTH 590 0
DWIDTH 8 0
BBX 6 9 0 0
BITMAP
CC
CC
CC
CC
FC
CC
CC
CC
CC
ENDCHAR
STARTCHAR char73
ENCODING 73
SWIDTH 590 0
DWIDTH 8 0
BBX 4 9 1 0
BITMAP
F0
60
60
60
60
60
60
60
F0
ENDCHAR
STARTCHAR char74
ENCODING 74
SWIDTH 590 0
DWIDTH 8 0
BBX 6 9 0 0
BITMAP
3C
0C
0C
0C
0C
0C
0C
CC
78
ENDCHAR
STARTCHAR char75
ENCODING 75
SWIDTH 590 0
DWIDTH 8 0
BBX 6 9 0 0
BITMAP
CC
D8
F0
E0
F0
D8
CC
CC
CC
ENDCHAR
STARTCHAR char76
ENCODING 76
SWIDTH 590 0
DWIDTH 8 0
BBX 6 9 0 0
BITMAP
C0
C0
C0
C0
C0
C0
C0
C0
FC
ENDCHAR
STARTCHAR char77
ENCODING 77
SWIDTH 590 0
DWIDTH 8 0
BBX 6 9 0 0
BITMAP
F8
FC
B4
B4
B4
B4
B4
B4
B4
ENDCHAR
STARTCHAR char78
ENCODING 78
SWIDTH 590 0
DWIDTH 8 0
BBX 6 9 0 0
BITMAP
F8
CC
CC
CC
CC
CC
CC
CC
CC
ENDCHAR
STARTCHAR char79
ENCODING 79
SWIDTH 590 0
DWIDTH 8 0
BBX 6 9 0 0
BITMAP
78
CC
CC
CC
CC
CC
CC
CC
78
ENDCHAR
STARTCHAR char80
ENCODING 80
SWIDTH 590 0
DWIDTH 8 0
BBX 6 9 0 0
BITMAP
F8
CC
CC
F8
C0
C0
C0
C0
C0
ENDCHAR
STARTCHAR char81
ENCODING 81
SWIDTH 590 0
DWIDTH 8 0
BBX 6 11 0 -2
BITMAP
78
CC
CC
CC
CC
CC
CC
CC
78
18
1C
ENDCHAR
STARTCHAR char82
ENCODING 82
SWIDTH 590 0
DWIDTH 8 0
BBX 6 9 0 0
BITMAP
F8
CC
CC
F8
D8
CC
CC
CC
CC
ENDCHAR
STARTCHAR char83
ENCODING 83
SWIDTH 590 0
DWIDTH 8 0
BBX 6 9 0 0
BITMAP
78
CC
C0
78
0C
0C
0C
CC
78
ENDCHAR
STARTCHAR char84
ENCODING 84
SWIDTH 590 0
DWIDTH 8 0
BBX 6 9 0 0
BITMAP
FC
30
30
30
30
30
30
30
30
ENDCHAR
STARTCHAR char85
ENCODING 85
SWIDTH 590 0
DWIDTH 8 0
BBX 6 9 0 0
BITMAP
CC
CC
CC
CC
CC
CC
CC
CC
78
ENDCHAR
STARTCHAR char86
ENCODING 86
SWIDTH 590 0
DWIDTH 8 0
BBX 6 9 0 0
BITMAP
CC
CC
CC
CC
CC
CC
CC
78
30
ENDCHAR
STARTCHAR char87
ENCODING 87
SWIDTH 590 0
DWIDTH 8 0
BBX 6 9 0 0
BITMAP
84
B4
B4
B4
B4
B4
B4
FC
F8
ENDCHAR
STARTCHAR char88
ENCODING 88
SWIDTH 590 0
DWIDTH 8 0
BBX 6 9 0 0
BITMAP
CC
CC
78
30
78
CC
CC
CC
CC
ENDCHAR
STARTCHAR char89
ENCODING 89
SWIDTH 590 0
DWIDTH 8 0
BBX 6 9 0 0
BITMAP
CC
CC
78
30
30
30
30
30
30
ENDCHAR
STARTCHAR char90
ENCODING 90
SWIDTH 590 0
DWIDTH 8 0
BBX 6 9 0 0
BITMAP
FC
0C
18
30
60
C0
C0
C0
FC
ENDCHAR
STARTCHAR char91
ENCODING 91
SWIDTH 590 0
DWIDTH 8 0
BBX 4 9 1 0
BITMAP
F0
C0
C0
C0
C0
C0
C0
C0
F0
ENDCHAR
STARTCHAR char92
ENCODING 92
SWIDTH 590 0
DWIDTH 8 0
BBX 6 9 0 0
BITMAP
C0
C0
60
60
30
18
18
0C
0C
ENDCHAR
STARTCHAR char93
ENCODING 93
SWIDTH 590 0
DWIDTH 8 0
BBX 4 9 1 0
BITMAP
F0
30
30
30
30
30
30
30
F0
ENDCHAR
STARTCHAR char94
ENCODING 94
SWIDTH 590 0
DWIDTH 8 0
BBX 6 3 0 6
BITMAP
30
78
CC
ENDCHAR
STARTCHAR char95
ENCODING 95
SWIDTH 590 0
DWIDTH 8 0
BBX 6 1 0 -1
BITMAP
FC
ENDCHAR
STARTCHAR char96
ENCODING 96
SWIDTH 590 0
DWIDTH 8 0
BBX 3 4 1 6
BITMAP
E0
E0
C0
60
ENDCHAR
STARTCHAR char97
ENCODING 97
SWIDTH 590 0
DWIDTH 8 0
BBX 6 7 0 0
BITMAP
F8
0C
7C
CC
CC
CC
7C
ENDCHAR
STARTCHAR char98
ENCODING 98
SWIDTH 590 0
DWIDTH 8 0
BBX 6 9 0 0
BITMAP
C0
C0
F8
CC
CC
CC
CC
CC
F8
ENDCHAR
STARTCHAR char99
ENCODING 99
SWIDTH 590 0
DWIDTH 8 0
BBX 6 7 0 0
BITMAP
78
CC
C0
C0
C0
CC
78
ENDCHAR
STARTCHAR char100
ENCODING 100
SWIDTH 590 0
DWIDTH 8 0
BBX 6 9 0 0
BITMAP
0C
0C
7C
CC
CC
CC
CC
CC
7C
ENDCHAR
STARTCHAR char101
ENCODING 101
SWIDTH 590 0
DWIDTH 8 0
BBX 6 7 0 0
BITMAP
78
CC
CC
FC
C0
C0
7C
ENDCHAR
STARTCHAR char102
ENCODING 102
SWIDTH 590 0
DWIDTH 8 0
BBX 4 9 1 0
BITMAP
70
C0
C0
F0
C0
C0
C0
C0
C0
ENDCHAR
STARTCHAR char103
ENCODING 103
SWIDTH 590 0
DWIDTH 8 0
BBX 6 9 0 -2
BITMAP
78
CC
CC
CC
CC
CC
7C
0C
F8
ENDCHAR
STARTCHAR char104
ENCODING 104
SWIDTH 590 0
DWIDTH 8 0
BBX 6 9 0 0
BITMAP
C0
C0
F8
CC
CC
CC
CC
CC
CC
ENDCHAR
STARTCHAR char105
ENCODING 105
SWIDTH 590 0
DWIDTH 8 0
BBX 4 9 1 0
BITMAP
60
00
E0
60
60
60
60
60
F0
ENDCHAR
STARTCHAR char106
ENCODING 106
SWIDTH 590 0
DWIDTH 8 0
BBX 5 11 0 -2
BITMAP
18
00
38
18
18
18
18
18
D8
D8
70
ENDCHAR
STARTCHAR char107
ENCODING 107
SWIDTH 590 0
DWIDTH 8 0
BBX 6 9 0 0
BITMAP
C0
C0
CC
D8
F0
D8
CC
CC
CC
ENDCHAR
STARTCHAR char108
ENCODING 108
SWIDTH 590 0
DWIDTH 8 0
BBX 4 9 1 0
BITMAP
E0
60
60
60
60
60
60
60
F0
ENDCHAR
STARTCHAR char109
ENCODING 109
SWIDTH 590 0
DWIDTH 8 0
BBX 6 7 0 0
BITMAP
F8
FC
B4
B4
B4
B4
B4
ENDCHAR
STARTCHAR char110
ENCODING 110
SWIDTH 590 0
DWIDTH 8 0
BBX 6 7 0 0
BITMAP
F8
CC
CC
CC
CC
CC
CC
ENDCHAR
STARTCHAR char111
ENCODING 111
SWIDTH 590 0
DWIDTH 8 0
BBX 6 7 0 0
BITMAP
78
CC
CC
CC
CC
CC
78
ENDCHAR
STARTCHAR char112
ENCODING 112
SWIDTH 590 0
DWIDTH 8 0
BBX 6 9 0 -2
BITMAP
F8
CC
CC
CC
CC
CC
F8
C0
C0
ENDCHAR
STARTCHAR char113
ENCODING 113
SWIDTH 590 0
DWIDTH 8 0
BBX 6 9 0 -2
BITMAP
7C
CC
CC
CC
CC
CC
7C
0C
0C
ENDCHAR
STARTCHAR char114
ENCODING 114
SWIDTH 590 0
DWIDTH 8 0
BBX 6 7 0 0
BITMAP
F8
CC
CC
C0
C0
C0
C0
ENDCHAR
STARTCHAR char115
ENCODING 115
SWIDTH 590 0
DWIDTH 8 0
BBX 6 7 0 0
BITMAP
78
CC
C0
78
0C
CC
78
ENDCHAR
STARTCHAR char116
ENCODING 116
SWIDTH 590 0
DWIDTH 8 0
BBX 4 9 1 0
BITMAP
C0
C0
F0
C0
C0
C0
C0
C0
70
ENDCHAR
STARTCHAR char117
ENCODING 117
SWIDTH 590 0
DWIDTH 8 0
BBX 6 7 0 0
BITMAP
CC
CC
CC
CC
CC
CC
7C
ENDCHAR
STARTCHAR char118
ENCODING 118
SWIDTH 590 0
DWIDTH 8 0
BBX 6 7 0 0
BITMAP
CC
CC
CC
CC
CC
78
30
ENDCHAR
STARTCHAR char119
ENCODING 119
SWIDTH 590 0
DWIDTH 8 0
BBX 6 7 0 0
BITMAP
84
B4
B4
B4
B4
FC
7C
ENDCHAR
STARTCHAR char120
ENCODING 120
SWIDTH 590 0
DWIDTH 8 0
BBX 6 7 0 0
BITMAP
CC
78
30
78
CC
CC
CC
ENDCHAR
STARTCHAR char121
ENCODING 121
SWIDTH 590 0
DWIDTH 8 0
BBX 6 9 0 -2
BITMAP
CC
CC
CC
CC
CC
CC
7C
0C
F8
ENDCHAR
STARTCHAR char122
ENCODING 122
SWIDTH 590 0
DWIDTH 8 0
BBX 6 7 0 0
BITMAP
FC
18
30
60
C0
C0
FC
ENDCHAR
STARTCHAR char123
ENCODING 123
SWIDTH 590 0
DWIDTH 8 0
BBX 6 9 0 0
BITMAP
1C
30
30
30
E0
30
30
30
1C
ENDCHAR
STARTCHAR char124
ENCODING 124
SWIDTH 590 0
DWIDTH 8 0
BBX 2 9 2 0
BITMAP
C0
C0
C0
C0
C0
C0
C0
C0
C0
ENDCHAR
STARTCHAR char125
ENCODING 125
SWIDTH 590 0
DWIDTH 8 0
BBX 6 9 0 0
BITMAP
E0
30
30
30
1C
30
30
30
E0
ENDCHAR
STARTCHAR char126
ENCODING 126
SWIDTH 590 0
DWIDTH 8 0
BBX 6 3 0 6
BITMAP
6C
FC
D8
ENDCHAR
STARTCHAR char33
ENCODING 161
SWIDTH 590 0
DWIDTH 8 0
BBX 2 9 2 0
BITMAP
C0
00
C0
C0
C0
C0
C0
C0
C0
ENDCHAR
STARTCHAR char99
ENCODING 162
SWIDTH 590 0
DWIDTH 8 0
BBX 6 9 0 -1
BITMAP
30
78
BC
B0
B0
B0
BC
78
30
ENDCHAR
STARTCHAR char156
ENCODING 163
SWIDTH 590 0
DWIDTH 8 0
BBX 6 9 0 0
BITMAP
38
6C
60
60
F0
60
60
6C
F8
ENDCHAR
STARTCHAR char164
ENCODING 164
SWIDTH 590 0
DWIDTH 8 0
BBX 6 6 0 2
BITMAP
CC
78
78
78
78
CC
ENDCHAR
STARTCHAR char157
ENCODING 165
SWIDTH 590 0
DWIDTH 8 0
BBX 6 9 0 0
BITMAP
CC
CC
78
30
FC
30
FC
30
30
ENDCHAR
STARTCHAR char124
ENCODING 166
SWIDTH 590 0
DWIDTH 8 0
BBX 2 9 2 0
BITMAP
C0
C0
C0
C0
00
C0
C0
C0
C0
ENDCHAR
STARTCHAR char167
ENCODING 167
SWIDTH 590 0
DWIDTH 8 0
BBX 6 9 0 -1
BITMAP
38
6C
70
D8
CC
6C
38
D8
70
ENDCHAR
STARTCHAR char168
ENCODING 168
SWIDTH 590 0
DWIDTH 8 0
BBX 5 1 1 9
BITMAP
D8
ENDCHAR
STARTCHAR char174
ENCODING 169
SWIDTH 590 0
DWIDTH 8 0
BBX 6 11 0 0
BITMAP
78
CC
CC
FC
EC
EC
EC
FC
CC
CC
78
ENDCHAR
STARTCHAR char166
ENCODING 170
SWIDTH 590 0
DWIDTH 8 0
BBX 5 7 1 2
BITMAP
F0
18
78
D8
78
00
F8
ENDCHAR
STARTCHAR char174
ENCODING 171
SWIDTH 590 0
DWIDTH 8 0
BBX 6 6 0 1
BITMAP
3C
78
F0
F0
78
3C
ENDCHAR
STARTCHAR char170
ENCODING 172
SWIDTH 590 0
DWIDTH 8 0
BBX 6 3 0 1
BITMAP
FC
0C
0C
ENDCHAR
STARTCHAR char173
ENCODING 173
SWIDTH 590 0
DWIDTH 8 0
BBX 2 9 2 0
BITMAP
C0
00
C0
C0
C0
C0
C0
C0
C0
ENDCHAR
STARTCHAR char174
ENCODING 174
SWIDTH 590 0
DWIDTH 8 0
BBX 6 11 0 0
BITMAP
78
C4
FC
EC
EC
F4
EC
EC
EC
C4
78
ENDCHAR
STARTCHAR char175
ENCODING 175
SWIDTH 590 0
DWIDTH 8 0
BBX 4 1 1 9
BITMAP
F0
ENDCHAR
STARTCHAR char248
ENCODING 176
SWIDTH 590 0
DWIDTH 8 0
BBX 5 4 1 5
BITMAP
70
D8
D8
70
ENDCHAR
STARTCHAR char241
ENCODING 177
SWIDTH 590 0
DWIDTH 8 0
BBX 6 7 0 1
BITMAP
30
30
FC
30
30
00
FC
ENDCHAR
STARTCHAR char253
ENCODING 178
SWIDTH 590 0
DWIDTH 8 0
BBX 4 5 1 4
BITMAP
60
F0
60
C0
F0
ENDCHAR
STARTCHAR char179
ENCODING 179
SWIDTH 590 0
DWIDTH 8 0
BBX 4 5 1 4
BITMAP
E0
30
60
30
E0
ENDCHAR
STARTCHAR char180
ENCODING 180
SWIDTH 590 0
DWIDTH 8 0
BBX 3 2 2 8
BITMAP
60
C0
ENDCHAR
STARTCHAR char230
ENCODING 181
SWIDTH 590 0
DWIDTH 8 0
BBX 5 7 1 -1
BITMAP
D8
D8
D8
D8
D8
F0
C0
ENDCHAR
STARTCHAR char80
ENCODING 182
SWIDTH 590 0
DWIDTH 8 0
BBX 6 9 0 0
BITMAP
7C
DC
DC
7C
1C
1C
1C
1C
1C
ENDCHAR
STARTCHAR char250
ENCODING 183
SWIDTH 590 0
DWIDTH 8 0
BBX 2 2 2 3
BITMAP
C0
C0
ENDCHAR
STARTCHAR char249
ENCODING 184
SWIDTH 590 0
DWIDTH 8 0
BBX 4 3 1 1
BITMAP
60
30
F0
ENDCHAR
STARTCHAR char185
ENCODING 185
SWIDTH 590 0
DWIDTH 8 0
BBX 3 5 1 4
BITMAP
60
E0
60
60
60
ENDCHAR
STARTCHAR char167
ENCODING 186
SWIDTH 590 0
DWIDTH 8 0
BBX 5 6 1 2
BITMAP
70
D8
D8
70
00
F8
ENDCHAR
STARTCHAR char175
ENCODING 187
SWIDTH 590 0
DWIDTH 8 0
BBX 6 6 0 1
BITMAP
F0
78
3C
3C
78
F0
ENDCHAR
STARTCHAR char172
ENCODING 188
SWIDTH 590 0
DWIDTH 8 0
BBX 6 10 0 0
BITMAP
60
E0
60
78
70
6C
DC
2C
3C
0C
ENDCHAR
STARTCHAR char171
ENCODING 189
SWIDTH 590 0
DWIDTH 8 0
BBX 6 10 0 0
BITMAP
60
E0
60
78
70
78
EC
1C
30
3C
ENDCHAR
STARTCHAR char172
ENCODING 190
SWIDTH 590 0
DWIDTH 8 0
BBX 6 11 0 0
BITMAP
E0
30
60
30
F8
30
6C
DC
2C
3C
0C
ENDCHAR
STARTCHAR char168
ENCODING 191
SWIDTH 590 0
DWIDTH 8 0
BBX 6 9 0 0
BITMAP
30
00
30
30
30
60
CC
CC
78
ENDCHAR
STARTCHAR char196
ENCODING 192
SWIDTH 590 0
DWIDTH 8 0
BBX 6 11 0 0
BITMAP
60
30
78
CC
CC
CC
FC
CC
CC
CC
CC
ENDCHAR
STARTCHAR char196
ENCODING 193
SWIDTH 590 0
DWIDTH 8 0
BBX 6 11 0 0
BITMAP
18
30
78
CC
CC
CC
FC
CC
CC
CC
CC
ENDCHAR
STARTCHAR char196
ENCODING 194
SWIDTH 590 0
DWIDTH 8 0
BBX 6 11 0 0
BITMAP
30
78
00
78
CC
CC
FC
CC
CC
CC
CC
ENDCHAR
STARTCHAR char196
ENCODING 195
SWIDTH 590 0
DWIDTH 8 0
BBX 6 11 0 0
BITMAP
3C
78
00
78
CC
CC
FC
CC
CC
CC
CC
ENDCHAR
STARTCHAR char196
ENCODING 196
SWIDTH 590 0
DWIDTH 8 0
BBX 6 11 0 0
BITMAP
6C
00
78
CC
CC
CC
FC
CC
CC
CC
CC
ENDCHAR
STARTCHAR char197
ENCODING 197
SWIDTH 590 0
DWIDTH 8 0
BBX 6 11 0 0
BITMAP
30
48
78
CC
CC
CC
FC
CC
CC
CC
CC
ENDCHAR
STARTCHAR char146
ENCODING 198
SWIDTH 590 0
DWIDTH 8 0
BBX 6 9 0 0
BITMAP
7C
F0
F0
B0
B8
F0
F0
B0
BC
ENDCHAR
STARTCHAR char128
ENCODING 199
SWIDTH 590 0
DWIDTH 8 0
BBX 6 11 0 -2
BITMAP
78
CC
C0
C0
C0
C0
C0
CC
78
30
60
ENDCHAR
STARTCHAR char69
ENCODING 200
SWIDTH 590 0
DWIDTH 8 0
BBX 6 11 0 0
BITMAP
60
30
00
FC
C0
C0
F8
C0
C0
C0
FC
ENDCHAR
STARTCHAR char69
ENCODING 201
SWIDTH 590 0
DWIDTH 8 0
BBX 6 11 0 0
BITMAP
18
30
00
FC
C0
C0
F8
C0
C0
C0
FC
ENDCHAR
STARTCHAR char69
ENCODING 202
SWIDTH 590 0
DWIDTH 8 0
BBX 6 11 0 0
BITMAP
30
78
00
FC
C0
C0
F8
C0
C0
C0
FC
ENDCHAR
STARTCHAR char69
ENCODING 203
SWIDTH 590 0
DWIDTH 8 0
BBX 6 11 0 0
BITMAP
6C
00
FC
C0
C0
C0
F8
C0
C0
C0
FC
ENDCHAR
STARTCHAR char73
ENCODING 204
SWIDTH 590 0
DWIDTH 8 0
BBX 4 11 1 0
BITMAP
C0
60
00
F0
60
60
60
60
60
60
F0
ENDCHAR
STARTCHAR char73
ENCODING 205
SWIDTH 590 0
DWIDTH 8 0
BBX 4 11 1 0
BITMAP
30
60
00
F0
60
60
60
60
60
60
F0
ENDCHAR
STARTCHAR char73
ENCODING 206
SWIDTH 590 0
DWIDTH 8 0
BBX 4 11 1 0
BITMAP
60
F0
00
F0
60
60
60
60
60
60
F0
ENDCHAR
STARTCHAR char73
ENCODING 207
SWIDTH 590 0
DWIDTH 8 0
BBX 5 11 1 0
BITMAP
D8
00
F0
60
60
60
60
60
60
60
F0
ENDCHAR
STARTCHAR char68
ENCODING 208
SWIDTH 590 0
DWIDTH 8 0
BBX 6 9 0 0
BITMAP
F8
CC
CC
CC
EC
CC
CC
CC
F8
ENDCHAR
STARTCHAR char78
ENCODING 209
SWIDTH 590 0
DWIDTH 8 0
BBX 6 11 0 0
BITMAP
78
F0
00
F8
CC
CC
CC
CC
CC
CC
CC
ENDCHAR
STARTCHAR char214
ENCODING 210
SWIDTH 590 0
DWIDTH 8 0
BBX 6 11 0 0
BITMAP
60
30
78
CC
CC
CC
CC
CC
CC
CC
78
ENDCHAR
STARTCHAR char214
ENCODING 211
SWIDTH 590 0
DWIDTH 8 0
BBX 6 11 0 0
BITMAP
18
30
78
CC
CC
CC
CC
CC
CC
CC
78
ENDCHAR
STARTCHAR char214
ENCODING 212
SWIDTH 590 0
DWIDTH 8 0
BBX 6 11 0 0
BITMAP
30
78
00
78
CC
CC
CC
CC
CC
CC
78
ENDCHAR
STARTCHAR char214
ENCODING 213
SWIDTH 590 0
DWIDTH 8 0
BBX 6 11 0 0
BITMAP
3C
78
00
78
CC
CC
CC
CC
CC
CC
78
ENDCHAR
STARTCHAR char214
ENCODING 214
SWIDTH 590 0
DWIDTH 8 0
BBX 6 11 0 0
BITMAP
6C
00
78
CC
CC
CC
CC
CC
CC
CC
78
ENDCHAR
STARTCHAR char215
ENCODING 215
SWIDTH 590 0
DWIDTH 8 0
BBX 4 3 1 3
BITMAP
F0
60
F0
ENDCHAR
STARTCHAR char237
ENCODING 216
SWIDTH 590 0
DWIDTH 8 0
BBX 6 9 0 -1
BITMAP
0C
78
DC
FC
FC
EC
EC
78
C0
ENDCHAR
STARTCHAR char154
ENCODING 217
SWIDTH 590 0
DWIDTH 8 0
BBX 6 10 0 0
BITMAP
60
30
CC
CC
CC
CC
CC
CC
CC
78
ENDCHAR
STARTCHAR char154
ENCODING 218
SWIDTH 590 0
DWIDTH 8 0
BBX 6 10 0 0
BITMAP
18
30
CC
CC
CC
CC
CC
CC
CC
78
ENDCHAR
STARTCHAR char154
ENCODING 219
SWIDTH 590 0
DWIDTH 8 0
BBX 6 11 0 0
BITMAP
30
78
00
CC
CC
CC
CC
CC
CC
CC
78
ENDCHAR
STARTCHAR char154
ENCODING 220
SWIDTH 590 0
DWIDTH 8 0
BBX 6 10 0 0
BITMAP
6C
00
CC
CC
CC
CC
CC
CC
CC
78
ENDCHAR
STARTCHAR char89
ENCODING 221
SWIDTH 590 0
DWIDTH 8 0
BBX 6 11 0 0
BITMAP
18
30
CC
CC
78
30
30
30
30
30
30
ENDCHAR
STARTCHAR char112
ENCODING 222
SWIDTH 590 0
DWIDTH 8 0
BBX 6 11 0 -2
BITMAP
C0
C0
C0
F8
CC
CC
CC
CC
F8
C0
C0
ENDCHAR
STARTCHAR char225
ENCODING 223
SWIDTH 590 0
DWIDTH 8 0
BBX 6 10 0 -1
BITMAP
78
CC
CC
F8
CC
CC
CC
EC
F8
C0
ENDCHAR
STARTCHAR char228
ENCODING 224
SWIDTH 590 0
DWIDTH 8 0
BBX 6 10 0 0
BITMAP
60
30
00
F8
0C
7C
CC
CC
CC
7C
ENDCHAR
STARTCHAR char228
ENCODING 225
SWIDTH 590 0
DWIDTH 8 0
BBX 6 10 0 0
BITMAP
18
30
00
F8
0C
7C
CC
CC
CC
7C
ENDCHAR
STARTCHAR char228
ENCODING 226
SWIDTH 590 0
DWIDTH 8 0
BBX 6 10 0 0
BITMAP
30
78
00
F8
0C
7C
CC
CC
CC
7C
ENDCHAR
STARTCHAR char228
ENCODING 227
SWIDTH 590 0
DWIDTH 8 0
BBX 6 10 0 0
BITMAP
3C
78
00
F8
0C
7C
CC
CC
CC
7C
ENDCHAR
STARTCHAR char228
ENCODING 228
SWIDTH 590 0
DWIDTH 8 0
BBX 6 9 0 0
BITMAP
6C
00
F8
0C
7C
CC
CC
CC
7C
ENDCHAR
STARTCHAR char229
ENCODING 229
SWIDTH 590 0
DWIDTH 8 0
BBX 6 9 0 0
BITMAP
30
48
F8
0C
7C
CC
CC
CC
7C
ENDCHAR
STARTCHAR char97
ENCODING 230
SWIDTH 590 0
DWIDTH 8 0
BBX 7 7 0 0
BITMAP
F6
1E
7A
DC
D8
D8
7E
ENDCHAR
STARTCHAR char135
ENCODING 231
SWIDTH 590 0
DWIDTH 8 0
BBX 6 9 0 -2
BITMAP
78
CC
C0
C0
C0
CC
78
30
60
ENDCHAR
STARTCHAR char136
ENCODING 232
SWIDTH 590 0
DWIDTH 8 0
BBX 6 10 0 0
BITMAP
60
30
00
78
CC
CC
FC
C0
CC
78
ENDCHAR
STARTCHAR char137
ENCODING 233
SWIDTH 590 0
DWIDTH 8 0
BBX 6 10 0 0
BITMAP
18
30
00
78
CC
CC
FC
C0
CC
78
ENDCHAR
STARTCHAR char137
ENCODING 234
SWIDTH 590 0
DWIDTH 8 0
BBX 6 10 0 0
BITMAP
30
78
00
78
CC
CC
FC
C0
CC
78
ENDCHAR
STARTCHAR char137
ENCODING 235
SWIDTH 590 0
DWIDTH 8 0
BBX 6 9 0 0
BITMAP
6C
00
78
CC
CC
FC
C0
CC
78
ENDCHAR
STARTCHAR char139
ENCODING 236
SWIDTH 590 0
DWIDTH 8 0
BBX 4 10 1 0
BITMAP
C0
60
00
E0
60
60
60
60
60
F0
ENDCHAR
STARTCHAR char139
ENCODING 237
SWIDTH 590 0
DWIDTH 8 0
BBX 4 10 1 0
BITMAP
30
60
00
E0
60
60
60
60
60
F0
ENDCHAR
STARTCHAR char139
ENCODING 238
SWIDTH 590 0
DWIDTH 8 0
BBX 4 10 1 0
BITMAP
60
F0
00
E0
60
60
60
60
60
F0
ENDCHAR
STARTCHAR char139
ENCODING 239
SWIDTH 590 0
DWIDTH 8 0
BBX 5 9 0 0
BITMAP
D8
00
70
30
30
30
30
30
78
ENDCHAR
STARTCHAR char235
ENCODING 240
SWIDTH 590 0
DWIDTH 8 0
BBX 6 8 0 0
BITMAP
D8
78
CC
78
CC
CC
CC
78
ENDCHAR
STARTCHAR char110
ENCODING 241
SWIDTH 590 0
DWIDTH 8 0
BBX 6 10 0 0
BITMAP
78
F0
00
F8
CC
CC
CC
CC
CC
CC
ENDCHAR
STARTCHAR char246
ENCODING 242
SWIDTH 590 0
DWIDTH 8 0
BBX 6 10 0 0
BITMAP
60
30
00
78
CC
CC
CC
CC
CC
78
ENDCHAR
STARTCHAR char246
ENCODING 243
SWIDTH 590 0
DWIDTH 8 0
BBX 6 10 0 0
BITMAP
18
30
00
78
CC
CC
CC
CC
CC
78
ENDCHAR
STARTCHAR char246
ENCODING 244
SWIDTH 590 0
DWIDTH 8 0
BBX 6 10 0 0
BITMAP
30
78
00
78
CC
CC
CC
CC
CC
78
ENDCHAR
STARTCHAR char246
ENCODING 245
SWIDTH 590 0
DWIDTH 8 0
BBX 6 10 0 0
BITMAP
3C
78
00
78
CC
CC
CC
CC
CC
78
ENDCHAR
STARTCHAR char246
ENCODING 246
SWIDTH 590 0
DWIDTH 8 0
BBX 6 9 0 0
BITMAP
6C
00
78
CC
CC
CC
CC
CC
78
ENDCHAR
STARTCHAR char247
ENCODING 247
SWIDTH 590 0
DWIDTH 8 0
BBX 6 5 0 2
BITMAP
30
00
FC
00
30
ENDCHAR
STARTCHAR char237
ENCODING 248
SWIDTH 590 0
DWIDTH 8 0
BBX 6 9 0 -1
BITMAP
0C
18
78
FC
B4
FC
78
60
C0
ENDCHAR
STARTCHAR char163
ENCODING 249
SWIDTH 590 0
DWIDTH 8 0
BBX 6 10 0 0
BITMAP
60
30
00
CC
CC
CC
CC
CC
CC
7C
ENDCHAR
STARTCHAR char163
ENCODING 250
SWIDTH 590 0
DWIDTH 8 0
BBX 6 10 0 0
BITMAP
18
30
00
CC
CC
CC
CC
CC
CC
7C
ENDCHAR
STARTCHAR char150
ENCODING 251
SWIDTH 590 0
DWIDTH 8 0
BBX 6 10 0 0
BITMAP
30
78
00
CC
CC
CC
CC
CC
CC
7C
ENDCHAR
STARTCHAR char150
ENCODING 252
SWIDTH 590 0
DWIDTH 8 0
BBX 6 9 0 0
BITMAP
6C
00
CC
CC
CC
CC
CC
CC
7C
ENDCHAR
STARTCHAR char152
ENCODING 253
SWIDTH 590 0
DWIDTH 8 0
BBX 6 12 0 -2
BITMAP
18
30
00
CC
CC
CC
CC
CC
CC
7C
0C
F8
ENDCHAR
STARTCHAR char112
ENCODING 254
SWIDTH 590 0
DWIDTH 8 0
BBX 6 11 0 -2
BITMAP
C0
C0
F8
CC
CC
CC
CC
CC
F8
C0
C0
ENDCHAR
STARTCHAR char152
ENCODING 255
SWIDTH 590 0
DWIDTH 8 0
BBX 6 11 0 -2
BITMAP
6C
00
CC
CC
CC
CC
CC
CC
7C
0C
F8
ENDCHAR
ENDFONT
